<svg width="28" height="34" viewBox="0 0 28 34" fill="none" xmlns="http://www.w3.org/2000/svg">
<path d="M14 33.6666C10.1388 32.6944 6.95107 30.4788 4.43663 27.0199C1.92218 23.561 0.665516 19.721 0.666627 15.4999V5.33325L14 0.333252L27.3333 5.33325V15.4999C27.3333 19.7221 26.0766 23.5627 23.5633 27.0216C21.05 30.4805 17.8622 32.6955 14 33.6666ZM14 30.1666C16.6944 29.3333 18.9444 27.6871 20.75 25.2283C22.5555 22.7694 23.6111 20.0266 23.9166 16.9999H14V3.87492L3.99996 7.62492V16.2499C3.99996 16.4444 4.02774 16.6944 4.08329 16.9999H14V30.1666Z" fill="#FF0000"/>
</svg>
