<svg width="30" height="27" viewBox="0 0 30 27" fill="none" xmlns="http://www.w3.org/2000/svg">
<path d="M1.1875 8.75C1.1875 1.3125 8.625 1.3125 15 1.3125C21.375 1.3125 28.8125 1.3125 28.8125 8.75C28.8125 17.25 21.375 7.6875 21.375 7.6875H8.625C8.625 7.6875 1.1875 17.25 1.1875 8.75ZM9.6875 10.875C9.6875 10.875 4.375 16.1875 4.375 25.75H25.625C25.625 16.1875 20.3125 10.875 20.3125 10.875H9.6875Z" stroke="#FF624F" stroke-width="2" stroke-linecap="round" stroke-linejoin="round"/>
<path d="M15 22.5625C17.3472 22.5625 19.25 20.6597 19.25 18.3125C19.25 15.9653 17.3472 14.0625 15 14.0625C12.6528 14.0625 10.75 15.9653 10.75 18.3125C10.75 20.6597 12.6528 22.5625 15 22.5625Z" stroke="#FF624F" stroke-width="2" stroke-linecap="round" stroke-linejoin="round"/>
</svg>
