<svg width="40" height="36" viewBox="0 0 40 36" fill="none" xmlns="http://www.w3.org/2000/svg">
<path opacity="0.24" d="M36.25 18H30V23.1429C30 25.9795 32.2422 28.2857 35 28.2857H35.625C36.6641 28.2857 37.5 29.1455 37.5 30.2143V34.0714C37.5 35.1402 36.6641 36 35.625 36H35C28.0938 36 22.5 30.2464 22.5 23.1429V3.85714C22.5 1.72768 24.1797 0 26.25 0H36.25C38.3203 0 40 1.72768 40 3.85714V14.1429C40 16.2723 38.3203 18 36.25 18ZM13.75 18H7.5V23.1429C7.5 25.9795 9.74219 28.2857 12.5 28.2857H13.125C14.1641 28.2857 15 29.1455 15 30.2143V34.0714C15 35.1402 14.1641 36 13.125 36H12.5C5.59375 36 0 30.2464 0 23.1429V3.85714C0 1.72768 1.67969 0 3.75 0H13.75C15.8203 0 17.5 1.72768 17.5 3.85714V14.1429C17.5 16.2723 15.8203 18 13.75 18Z" fill="#114B9F"/>
</svg>
